<svg xmlns="http://www.w3.org/2000/svg" viewBox="0 0 64 64" role="img" aria-label="forma">
  <rect width="64" height="64" rx="16" fill="#C2674A"/>
  <g transform="translate(27.0 36.0) scale(0.0421)" fill="#F6F1E9"><path d="M45.31 19.14Q74.22 6.25 97.85-10.55Q121.48-27.34 140.04-45.90Q158.59-64.45 171.68-83.79Q184.77-103.12 192.58-120.70Q196.09-129.30 205.86-129.30Q212.50-129.30 216.60-124.80Q220.70-120.31 220.70-114.84Q220.70-111.72 219.53-108.98Q210.94-89.84 197.66-69.34Q184.38-48.83 165.43-29.10Q146.48-9.37 121.09 8.98Q95.70 27.34 62.89 42.58Q83.98 64.45 99.61 91.21Q115.23 117.97 125.59 146.88Q135.94 175.78 141.21 205.27Q146.48 234.77 146.48 261.72Q146.48 286.33 141.99 308.01Q137.50 329.69 128.71 345.70Q119.92 361.72 107.42 370.90Q94.92 380.08 78.91 380.08Q55.47 380.08 42.58 362.70Q29.69 345.31 23.63 314.65Q17.58 283.98 16.60 242.38Q15.63 200.78 15.63 151.95Q15.63 127.73 15.63 95.51Q15.63 63.28 15.82 26.37Q16.02-10.55 16.21-50.98Q16.41-91.41 16.80-132.03Q17.19-172.66 17.58-211.91Q17.97-251.17 18.75-286.33Q19.92-353.52 23.44-406.25Q26.95-458.98 34.77-495.31Q42.58-531.64 56.05-550.59Q69.53-569.53 90.23-569.53Q106.64-569.53 117.97-560.35Q129.30-551.17 136.33-535.74Q143.36-520.31 146.48-499.61Q149.61-478.91 149.61-456.25Q149.61-408.59 141.41-364.06Q133.20-319.53 119.14-277.73Q105.08-235.94 86.13-196.09Q67.19-156.25 45.70-117.58Q45.70-101.56 45.70-83.01Q45.70-64.45 45.70-45.90Q45.70-27.34 45.51-10.35Q45.31 6.64 45.31 19.14M46.48-177.73Q62.50-207.81 75.98-241.21Q89.45-274.61 99.22-310.16Q108.98-345.70 114.45-382.81Q119.92-419.92 119.92-457.42Q119.92-476.17 118.16-491.41Q116.41-506.64 112.70-517.38Q108.98-528.12 103.32-534.18Q97.66-540.23 90.23-540.23Q82.42-540.23 76.56-530.86Q70.70-521.48 66.41-505.86Q62.11-490.23 59.18-469.92Q56.25-449.61 54.30-427.54Q52.34-405.47 51.17-383.40Q50-361.33 49.41-341.99Q48.83-322.66 48.63-307.81Q48.44-292.97 48.44-285.55Q48.05-269.92 47.85-257.81Q47.66-245.70 47.27-233.98Q46.88-222.27 46.68-208.98Q46.48-195.70 46.48-177.73M45.31 67.19Q45.31 91.80 45.12 113.09Q44.92 134.38 44.92 151.95Q44.92 188.28 45.31 223.83Q45.70 259.38 49.02 287.70Q52.34 316.02 59.18 333.40Q66.02 350.78 78.91 350.78Q90.63 350.78 98.05 340.23Q105.47 329.69 109.57 315.23Q113.67 300.78 115.23 285.74Q116.80 270.70 116.80 261.33Q116.80 237.50 112.30 211.33Q107.81 185.16 98.63 159.57Q89.45 133.98 76.17 110.16Q62.89 86.33 45.31 67.19"/></g>
</svg>