<svg xmlns="http://www.w3.org/2000/svg" viewBox="18 22 500 338" role="img" aria-label="forma">
  <path d="M 28 276 C 130 288, 300 284, 430 270 C 470 265, 494 258, 510 246 C 497 260, 470 270, 430 278 C 300 292, 130 296, 28 284 Z" fill="#C2674A"/>
  <g transform="translate(35 222)" fill="currentColor"><path d="M15.29 6.46Q25.05 2.11 33.02-3.56Q41-9.23 47.26-15.49Q53.53-21.75 57.94-28.28Q62.36-34.80 65-40.74Q66.18-43.64 69.48-43.64Q71.72-43.64 73.10-42.12Q74.49-40.61 74.49-38.76Q74.49-37.71 74.09-36.78Q71.19-30.32 66.71-23.40Q62.23-16.48 55.83-9.82Q49.44-3.16 40.87 3.03Q32.30 9.23 21.23 14.37Q28.34 21.75 33.62 30.78Q38.89 39.81 42.39 49.57Q45.88 59.33 47.66 69.28Q49.44 79.23 49.44 88.33Q49.44 96.64 47.92 103.95Q46.41 111.27 43.44 116.67Q40.47 122.08 36.25 125.18Q32.04 128.28 26.63 128.28Q18.72 128.28 14.37 122.41Q10.02 116.54 7.98 106.19Q5.93 95.84 5.60 81.80Q5.27 67.76 5.27 51.28Q5.27 43.11 5.27 32.23Q5.27 21.36 5.34 8.90Q5.41-3.56 5.47-17.20Q5.54-30.85 5.67-44.56Q5.80-58.27 5.93-71.52Q6.06-84.77 6.33-96.64Q6.72-119.31 7.91-137.11Q9.10-154.91 11.73-167.17Q14.37-179.43 18.92-185.82Q23.47-192.22 30.45-192.22Q35.99-192.22 39.81-189.12Q43.64-186.02 46.01-180.81Q48.38-175.61 49.44-168.62Q50.49-161.63 50.49-153.98Q50.49-137.90 47.72-122.87Q44.96-107.84 40.21-93.74Q35.46-79.63 29.07-66.18Q22.68-52.73 15.42-39.68Q15.42-34.28 15.42-28.02Q15.42-21.75 15.42-15.49Q15.42-9.23 15.36-3.49Q15.29 2.24 15.29 6.46M15.69-59.99Q21.09-70.14 25.64-81.41Q30.19-92.68 33.49-104.68Q36.78-116.67 38.63-129.20Q40.47-141.72 40.47-154.38Q40.47-160.71 39.88-165.85Q39.29-170.99 38.03-174.62Q36.78-178.24 34.87-180.29Q32.96-182.33 30.45-182.33Q27.82-182.33 25.84-179.17Q23.86-176 22.41-170.73Q20.96-165.45 19.97-158.60Q18.98-151.74 18.33-144.29Q17.67-136.85 17.27-129.40Q16.88-121.95 16.68-115.42Q16.48-108.90 16.41-103.89Q16.35-98.88 16.35-96.37Q16.22-91.10 16.15-87.01Q16.08-82.92 15.95-78.97Q15.82-75.01 15.75-70.53Q15.69-66.05 15.69-59.99M15.29 22.68Q15.29 30.98 15.23 38.17Q15.16 45.35 15.16 51.28Q15.16 63.54 15.29 75.54Q15.42 87.54 16.55 97.10Q17.67 106.66 19.97 112.52Q22.28 118.39 26.63 118.39Q30.59 118.39 33.09 114.83Q35.60 111.27 36.98 106.39Q38.36 101.51 38.89 96.44Q39.42 91.36 39.42 88.20Q39.42 80.16 37.90 71.32Q36.39 62.49 33.29 53.85Q30.19 45.22 25.71 37.18Q21.23 29.14 15.29 22.68M108.72-10.74Q106.27-10.74 104.42-11.13Q102.95-8.20 100.90-5.71Q98.85-3.22 96.17-1.37Q93.48 0.49 90.16 1.56Q86.84 2.64 82.93 2.64Q78.34 2.64 74.54 1.03Q70.73-0.59 67.90-3.47Q65.06-6.35 63.50-10.40Q61.94-14.45 61.94-19.34Q61.94-25.59 64.18-30.22Q66.43-34.86 69.36-37.94Q72.29-41.02 75.22-42.53Q78.15-44.04 79.61-44.04Q81.27-44.04 82.10-43.16Q82.93-42.29 82.93-40.82Q82.93-39.16 81.91-38.33Q80.88-37.50 79.32-36.72Q77.76-35.94 76-34.52Q74.24-33.11 72.73-30.96Q71.22-28.81 70.24-25.88Q69.26-22.95 69.26-19.34Q69.26-16.11 70.24-13.33Q71.22-10.55 73.07-8.54Q74.93-6.54 77.47-5.42Q80-4.30 83.13-4.30Q88.70-4.30 92.36-6.88Q96.02-9.47 97.97-13.48Q92.21-16.50 88.50-22.07Q84.79-27.64 84.79-34.57Q84.79-40.14 87.48-43.65Q90.16-47.17 94.56-47.17Q97.19-47.17 99.54-45.90Q101.88-44.63 103.69-41.89Q105.49-39.16 106.57-34.86Q107.64-30.57 107.64-24.61Q107.64-21.48 106.86-18.07Q107.45-17.97 108.03-17.97Q108.62-17.97 109.30-17.97Q112.62-17.97 115.26-18.75Q117.90-19.53 120.04-21.09Q122.19-22.66 123.90-25.10Q125.61-27.54 127.17-30.76Q127.47-31.35 128.44-31.88Q129.42-32.42 130.40-32.42Q131.67-32.42 132.79-31.40Q133.91-30.37 133.91-28.71Q133.91-27.93 133.52-27Q133.13-26.07 132.74-25.29Q131.08-22.36 128.88-19.68Q126.68-16.99 123.71-14.99Q120.73-12.99 117.02-11.82Q113.31-10.64 108.72-10.74M92.02-35.35Q92.02-33.50 92.50-31.45Q92.99-29.39 94.02-27.39Q95.04-25.39 96.56-23.58Q98.07-21.78 100.12-20.51Q100.42-22.56 100.42-24.51Q100.42-27.15 100.02-29.88Q99.63-32.62 98.90-34.91Q98.17-37.21 97.09-38.62Q96.02-40.04 94.56-40.04Q93.97-40.04 92.99-39.16Q92.02-38.28 92.02-35.35M137.13-40.14Q136.74-37.50 136.16-35.21Q135.57-32.91 135.03-31.20Q134.50-29.49 134.11-28.42Q133.72-27.34 133.62-27.25Q132.64-25 130.20-25Q128.83-25 127.66-26.03Q126.49-27.05 126.49-28.61Q126.49-29.20 126.68-29.49Q126.88-29.79 127.27-30.66Q127.66-31.54 128.25-33.59Q128.83-35.64 129.71-39.94Q128.05-39.94 126.29-40.04Q124.54-40.14 123.02-40.72Q121.51-41.31 120.53-42.58Q119.56-43.85 119.56-46.09Q119.56-47.75 120.48-50.59Q121.41-53.42 122.97-56.15Q124.54-58.89 126.49-60.89Q128.44-62.89 130.40-62.89Q132.64-62.89 134.06-61.23Q135.47-59.57 136.25-57.18Q137.04-54.79 137.38-52.15Q137.72-49.51 137.72-47.56Q139.38-47.56 140.99-47.61Q142.60-47.66 144.07-47.66Q149.63-47.66 152.56-45.21Q155.49-42.77 155.49-37.21Q155.49-34.96 155.20-32.52Q154.91-30.08 154.52-27.49Q154.13-24.90 153.83-22.36Q153.54-19.82 153.54-17.38Q153.54-13.87 154.52-11.57Q155.49-9.28 156.96-7.91Q158.42-6.54 160.08-6.01Q161.74-5.47 163.11-5.47Q167.31-5.47 171.02-8.20Q174.73-10.94 177.86-14.79Q180.98-18.65 183.47-22.95Q185.96-27.25 187.62-30.47Q188.11-31.35 188.99-31.84Q189.87-32.32 190.84-32.32Q192.60-32.32 193.58-31.20Q194.56-30.08 194.56-28.71Q194.56-27.73 194.17-26.95Q191.92-22.95 188.94-17.92Q185.96-12.89 182.15-8.50Q178.34-4.10 173.61-1.07Q168.87 1.95 163.21 1.95Q159.69 1.95 156.57 0.63Q153.44-0.68 151.15-3.17Q148.85-5.66 147.49-9.33Q146.12-12.99 146.12-17.58Q146.12-22.46 147.09-27.29Q148.07-32.13 148.07-36.52Q148.07-38.38 147.24-39.31Q146.41-40.23 143.58-40.23Q142.21-40.23 140.60-40.23Q138.99-40.23 137.13-40.14M126.29-47.36L130.59-47.36Q130.59-48.05 130.54-49.17Q130.49-50.29 130.35-51.37Q130.20-52.44 129.96-53.22Q129.71-54 129.42-54Q129.13-54 128.69-53.27Q128.25-52.54 127.76-51.51Q127.27-50.49 126.88-49.32Q126.49-48.14 126.29-47.36M210.08-8.69Q211.55-11.62 213.84-15.97Q216.14-20.31 218.63-24.71Q221.12-29.10 223.51-33.01Q225.90-36.91 227.56-38.96Q230.40-42.38 233.42-43.85Q236.45-45.31 238.99-45.31Q241.53-45.31 243.33-44.24Q245.14-43.16 246.31-41.36Q247.49-39.55 248.07-37.16Q248.66-34.77 248.66-32.03Q248.66-30.47 248.51-27.93Q248.36-25.39 248.22-22.46Q248.07-19.53 247.92-16.41Q247.78-13.28 247.68-10.55Q249.15-13.48 251-17.04Q252.86-20.61 254.76-24.12Q256.67-27.64 258.42-30.71Q260.18-33.79 261.65-35.74Q265.84-41.50 269.51-43.46Q273.17-45.41 276-45.41Q279.32-45.41 281.47-44.19Q283.62-42.97 284.84-41.06Q286.06-39.16 286.55-36.82Q287.04-34.47 287.04-32.32Q287.04-29 286.55-25.39Q286.06-21.78 286.06-16.80Q286.06-14.75 286.25-12.70Q286.45-10.64 287.08-9.08Q287.72-7.52 289.09-6.54Q290.45-5.57 292.80-5.57Q295.34-5.57 297.78-6.88Q300.22-8.20 302.47-10.35Q304.71-12.50 306.71-15.23Q308.72-17.97 310.38-20.70Q312.04-23.44 313.31-25.93Q314.58-28.42 315.36-30.18Q315.84-31.25 316.72-31.84Q317.60-32.42 318.68-32.42Q320.34-32.42 321.36-31.20Q322.39-29.98 322.39-28.61Q322.39-27.93 322.09-27.25Q321.70-26.46 320.53-23.97Q319.36-21.48 317.41-18.31Q315.45-15.14 312.87-11.62Q310.28-8.11 307.15-5.13Q304.03-2.15 300.42-0.24Q296.80 1.66 292.80 1.66Q288.50 1.66 285.82 0.15Q283.13-1.37 281.52-3.91Q279.91-6.45 279.32-9.77Q278.74-13.09 278.74-16.70Q278.74-21.48 279.22-25.54Q279.71-29.59 279.71-31.84Q279.71-34.28 279.27-35.55Q278.83-36.82 278.20-37.35Q277.56-37.89 276.98-37.94Q276.39-37.99 276.10-37.99Q273.75-37.99 271.17-35.40Q268.58-32.81 265.84-28.52Q263.11-24.22 260.23-18.75Q257.35-13.28 254.42-7.62Q252.76-4.49 251.64-2.44Q250.51-0.39 249.49 0.78Q248.46 1.95 247.49 2.44Q246.51 2.93 245.34 2.93Q242.80 2.93 241.48 1.17Q240.16-0.59 240.16-3.42Q240.16-4.88 240.26-7.32Q240.36-9.77 240.45-12.70Q240.55-15.62 240.75-18.75Q240.94-21.87 241.04-24.76Q241.14-27.64 241.24-29.88Q241.33-32.13 241.33-33.30Q241.33-35.84 240.45-36.96Q239.58-38.09 238.40-38.09Q237.33-38.09 236.01-37.30Q234.69-36.52 232.93-34.28Q231.57-32.52 229.47-29.15Q227.37-25.78 225.02-21.68Q222.68-17.58 220.39-13.28Q218.09-8.98 216.43-5.57Q214.38-1.46 212.33 0.05Q210.28 1.56 208.33 1.56Q205.49 1.56 204.13-0.15Q202.76-1.86 202.76-4.69Q202.76-4.98 202.91-8.20Q203.05-11.43 203.25-16.06Q203.44-20.70 203.69-25.98Q203.93-31.25 204.13-35.84Q204.22-38.28 203.93-40.33Q203.64-42.38 203.15-42.77Q202.37-42.58 200.07-39.16Q197.78-35.74 194.26-27.25Q193.77-26.17 192.80-25.59Q191.82-25 190.75-25Q189.09-25 188.11-26.12Q187.13-27.25 187.13-28.71Q187.13-29.39 187.43-30.18Q191.82-40.62 195.83-45.56Q199.83-50.49 203.64-50.49Q205.88-50.49 207.40-49.46Q208.91-48.44 209.79-46.83Q210.67-45.21 211.06-43.16Q211.45-41.11 211.45-39.16Q211.45-30.47 211.01-23.24Q210.57-16.02 210.08-8.69M418.56-36.78Q418.04-35.73 416.39-32.37Q414.74-29 412.17-24.65Q409.60-20.30 406.17-15.56Q402.74-10.81 398.53-6.86Q394.31-2.90 389.43-0.33Q384.55 2.24 379.15 2.24Q371.50 2.24 366.29-2.64Q361.08-7.51 358.71-14.90Q354.23-7.38 348.03-2.97Q341.84 1.45 335.64 1.45Q330.76 1.45 326.81-0.33Q322.85-2.11 320.08-5.34Q317.31-8.57 315.80-12.92Q314.28-17.27 314.28-22.41Q314.28-32.70 317.78-40.54Q321.27-48.38 326.67-53.66Q332.08-58.93 338.61-61.57Q345.13-64.20 351.20-64.20Q355.28-64.20 358.71-63.08Q362.14-61.96 364.58-60.64Q367.02-59.33 368.33-58.21Q369.65-57.08 369.79-56.95Q371.24-55.24 371.24-53.39Q371.24-51.42 369.79-49.90Q368.33-48.38 366.36-48.38Q364.25-48.38 362.80-49.83Q362.53-50.10 361.61-50.82Q360.69-51.55 359.11-52.34Q357.52-53.13 355.35-53.72Q353.17-54.32 350.41-54.32Q346.32-54.32 341.70-52.47Q337.09-50.62 333.27-46.74Q329.44-42.85 326.87-36.98Q324.30-31.11 324.30-23.07Q324.30-20.57 324.83-18Q325.36-15.42 326.67-13.32Q327.99-11.21 330.23-9.89Q332.48-8.57 335.77-8.57Q338.14-8.57 341.24-10.15Q344.34-11.73 347.18-15.03Q350.01-18.33 352.32-23.33Q354.62-28.34 355.55-35.20Q355.81-37.05 357.26-38.30Q358.71-39.55 360.69-39.55Q362.53-39.55 363.92-38.10Q365.30-36.65 365.43-34.80Q365.57-32.30 365.96-27.75Q366.36-23.20 367.74-18.72Q369.13-14.24 371.89-10.94Q374.66-7.65 379.54-7.65Q382.71-7.65 385.80-9.36Q388.90-11.07 391.87-13.91Q394.83-16.74 397.54-20.37Q400.24-23.99 402.48-27.69Q404.72-31.38 406.44-34.80Q408.15-38.23 409.34-40.74Q410-42.19 411.25-42.98Q412.50-43.77 413.95-43.77Q416.19-43.77 417.58-42.12Q418.96-40.47 418.96-38.63Q418.96-37.71 418.56-36.78"/></g>
</svg>